<?xml version="1.0" encoding="utf-8"?>
<!-- Designed by Vexels.com - 2016 All Rights Reserved - https://vexels.com/terms-and-conditions/  -->

<svg version="1.1" id="Capa_1" xmlns="http://www.w3.org/2000/svg" xmlns:xlink="http://www.w3.org/1999/xlink" x="0px" y="0px"
	 width="1200px" height="1200px" viewBox="0 0 1200 1200" enable-background="new 0 0 1200 1200" xml:space="preserve">
<g>
	<g>
		<g>
			<path fill="#F26924" d="M562.517,1149.294c-218.945-0.662-319.916-127.065-344.018-292.716
				c-24.101-165.645,115.345-353.317,115.345-353.317s-6.868,129.465,62.798,118.91c69.673-10.557-88.775-245.232,44.86-422.082
				c0,0,16.738,155.199,104.337,176.85c87.6,21.657-36.631-155.831,93.459-326.939c0,0,8.453,200.624,75.188,269.196
				c66.728,68.572,85.099,47.051,70.44-61.364c0,0,155.979,185.556,67.948,341.809c-88.028,156.252,42.886,188.737,73.051,44.372
				C925.929,644.013,1199.394,1151.193,562.517,1149.294z"/>
		</g>
		<g>
			<path fill="#F49E21" d="M562.603,1149.992c-227.677-0.699-296.509-150.119-314.162-275.346
				c-13.427-95.296,30.035-200.995,66.177-269.201c5.037,15.098,12.251,29.402,22.555,40.615
				c13.835,15.062,31.693,23.019,51.623,23.019c4.034,0,8.199-0.327,12.382-0.978c14.25-2.239,25.925-9.528,33.753-21.106
				c17.659-26.117,10.347-63.008-0.724-118.865c-13.557-68.386-31-156.425-3.868-238.919c0.656,1.992,1.35,3.99,2.055,5.995
				c23.413,66.265,60.131,107.505,106.181,119.256c7.307,1.862,13.873,2.765,20.067,2.765c18.737,0,30.282-8.476,36.674-15.58
				c18.21-20.265,16.057-49.731,13.087-90.514c-3.07-42.113-7.216-98.866,11.322-159.197
				c10.705,67.656,31.818,150.626,73.072,194.387c33.514,35.542,56.092,50.034,77.965,50.034c12.982,0,24.844-5.551,33.37-15.63
				c3.676-4.344,6.688-9.387,9.065-15.339c30.833,63.981,56.469,154.197,13.31,233.264c-47.601,87.21-34.774,135.435-22.894,156.412
				c11.248,19.869,30.116,31.26,51.76,31.26c23.569,0,50.213-14.484,70.998-45.597c24.199,71.208,48.689,186.064-2.345,274.091
				C872.02,1104.514,751.59,1150,566.087,1150L562.603,1149.992z"/>
		</g>
		<g>
			<path fill="#F5C729" d="M562.66,1149.85c-165.428-0.538-261.09-88.014-284.282-259.987
				c-9.344-69.395,12.265-146.147,38.89-209.607c19.181,20.654,44.471,31.989,71.53,31.989c5.563,0,11.256-0.477,16.93-1.405
				c22.319-3.644,41.513-16.311,54.025-35.652c25.091-38.81,16.292-85.253,4.108-149.538c-8.1-42.726-17.424-91.918-17.549-141.673
				c28.285,37.888,59.699,54.291,85.001,61.049c9.721,2.586,18.656,3.841,27.331,3.841c23.135,0,44.038-9.491,58.851-26.736
				c24.236-28.204,24.626-63.542,22.097-104.188c9.517,18.502,20.031,34.15,31.527,46.897
				c29.125,32.305,61.362,62.206,99.646,62.206c11.479,0,22.443-2.7,32.343-7.835c17.611,52.683,25.736,115.723-2.963,170.701
				C745.129,695.312,762.338,758,777.492,785.984c16.57,30.598,45.69,48.87,77.884,48.87c19.547,0,38.833-6.694,56.389-19.151
				c14.301,62.527,21.62,144.959-13.699,208.674c-46.16,83.256-157.848,125.474-331.928,125.48L562.66,1149.85z"/>
		</g>
		<g>
			<path fill="#F6E764" d="M562.709,1149.765c-150.176-0.514-233.399-80.526-254.383-244.619
				c-5.785-45.288,1.949-101.125,22.425-163.188c17.851,10.023,37.603,15.32,58.046,15.32c7.079,0,14.3-0.63,21.465-1.868
				c30.61-5.278,56.995-23.716,74.302-51.928c32.516-53.027,21.595-113.822,8.941-184.226c-3.589-19.948-7.389-41.105-10.481-62.854
				c13.049,8.05,26.786,14.145,41.024,18.149c12.146,3.409,23.462,5.067,34.596,5.067c31.65,0,60.428-13.922,81.041-39.206
				c11.313-13.873,18.731-28.785,23.484-44.259c30.362,33.017,64.686,60.453,107.597,60.453c4.054,0,8.069-0.247,12.023-0.749
				c10.383,47.41,7.382,88.051-9.003,121.125c-62.429,126.092-40.846,205.098-22.418,240.974
				c22.052,42.941,60.937,68.577,104.009,68.577c11.479,0,22.97-1.862,34.225-5.488c6.714,50.027,6.281,107.969-17.492,153.182
				c-40.32,76.648-143.246,115.519-305.927,115.543L562.709,1149.765z"/>
		</g>
		<g>
			<path fill="#F6F197" d="M609.264,1149.77c-64.531,0.589-283.235-139.569-159.697-385.431c0,0,9.56,83.922,71.406,58.548
				c61.833-25.383,116.458-183.144,67.377-279.758c0,0,84.872,62.781,80.639,166.418c-4.225,103.644-92.524,197.938-52.337,261.386
				c40.191,63.454,131.211-17.177,80.455-135.614c0,0,57.32,47.779,71.912,135.361
				C781.705,1046.819,716.059,1148.798,609.264,1149.77z"/>
		</g>
	</g>
</g>
</svg>
